<?xml version="1.0" encoding="UTF-8" standalone="no"?>
<!-- Created with Inkscape (http://www.inkscape.org/) -->

<svg
   width="63.037605mm"
   height="14.106246mm"
   viewBox="0 0 63.037605 14.106246"
   version="1.1"
   id="svg1"
   inkscape:version="1.3.2 (091e20e, 2023-11-25, custom)"
   sodipodi:docname="uni-misco.svg"
   xmlns:inkscape="http://www.inkscape.org/namespaces/inkscape"
   xmlns:sodipodi="http://sodipodi.sourceforge.net/DTD/sodipodi-0.dtd"
   xmlns="http://www.w3.org/2000/svg"
   xmlns:svg="http://www.w3.org/2000/svg">
  <sodipodi:namedview
     id="namedview1"
     pagecolor="#ffffff"
     bordercolor="#000000"
     borderopacity="0.25"
     inkscape:showpageshadow="2"
     inkscape:pageopacity="0.0"
     inkscape:pagecheckerboard="0"
     inkscape:deskcolor="#d1d1d1"
     inkscape:document-units="mm"
     showguides="true"
     inkscape:zoom="2.9754489"
     inkscape:cx="92.59107"
     inkscape:cy="38.817672"
     inkscape:window-width="1920"
     inkscape:window-height="1027"
     inkscape:window-x="-8"
     inkscape:window-y="-8"
     inkscape:window-maximized="1"
     inkscape:current-layer="layer1">
    <sodipodi:guide
       position="10.551886,13.971895"
       orientation="0,-1"
       id="guide9"
       inkscape:locked="false" />
    <sodipodi:guide
       position="10.551886,0.10003492"
       orientation="0,-1"
       id="guide10"
       inkscape:locked="false" />
    <sodipodi:guide
       position="17.487814,7.0359649"
       orientation="1,0"
       id="guide11"
       inkscape:locked="false" />
    <sodipodi:guide
       position="19.83223,7.0359649"
       orientation="1,0"
       id="guide12"
       inkscape:locked="false" />
    <sodipodi:guide
       position="17.487814,7.0359649"
       orientation="0,-1"
       id="guide13"
       inkscape:locked="false" />
  </sodipodi:namedview>
  <defs
     id="defs1" />
  <g
     inkscape:label="Layer 1"
     inkscape:groupmode="layer"
     id="layer1"
     transform="translate(-51.686535,-21.778334)">
    <rect
       style="fill:#ffffff;fill-opacity:1;stroke:none;stroke-width:1;stroke-linecap:round;stroke-linejoin:miter;stroke-dasharray:none;stroke-opacity:1;paint-order:normal"
       id="rect13"
       width="63.037605"
       height="14.106246"
       x="51.686535"
       y="21.778334" />
    <rect
       style="fill:#ffffff;fill-opacity:1;stroke:none;stroke-width:1;stroke-linecap:round;stroke-linejoin:miter;stroke-dasharray:none;stroke-opacity:1;paint-order:normal"
       id="rect13-1"
       width="63.037605"
       height="14.106246"
       x="51.686535"
       y="39.166752" />
    <text
       xml:space="preserve"
       style="font-style:italic;font-size:7.05556px;font-family:Sans;-inkscape-font-specification:'Sans, Italic';font-variant-ligatures:none;fill:#2f6f2a;stroke:#2f6f2a;stroke-width:0.253471;stroke-linejoin:bevel;paint-order:markers stroke fill"
       x="71.479958"
       y="27.654753"
       id="text1"><tspan
         sodipodi:role="line"
         id="tspan1"
         style="font-style:normal;font-variant:normal;font-weight:normal;font-stretch:normal;font-size:7.05556px;font-family:'Libertinus Serif Display';-inkscape-font-specification:'Libertinus Serif Display, Normal';font-variant-ligatures:none;font-variant-caps:normal;font-variant-numeric:normal;font-variant-east-asian:normal;fill:#000000;fill-opacity:1;stroke:none;stroke-width:0.253471"
         x="71.479958"
         y="27.654753">U<tspan
   style="font-size:5.64444px"
   id="tspan5">NIVERSITY</tspan></tspan><tspan
         sodipodi:role="line"
         style="font-style:normal;font-variant:normal;font-weight:normal;font-stretch:normal;font-size:7.05556px;font-family:'Libertinus Serif Display';-inkscape-font-specification:'Libertinus Serif Display, Normal';font-variant-ligatures:none;font-variant-caps:normal;font-variant-numeric:normal;font-variant-east-asian:normal;fill:#000000;fill-opacity:1;stroke:none;stroke-width:0.253471"
         x="71.479958"
         y="36.478893"
         id="tspan2" /></text>
    <text
       xml:space="preserve"
       style="font-style:normal;font-variant:normal;font-weight:normal;font-stretch:normal;font-size:5.64444px;font-family:'Libertinus Serif Display';-inkscape-font-specification:'Libertinus Serif Display, Normal';font-variant-ligatures:none;font-variant-caps:normal;font-variant-numeric:normal;font-variant-east-asian:normal;fill:#000000;fill-opacity:1;stroke:none;stroke-width:0.253471;stroke-linejoin:bevel;paint-order:markers stroke fill"
       x="71.315567"
       y="34.592152"
       id="text6"><tspan
         sodipodi:role="line"
         id="tspan6"
         style="stroke-width:0.253471"
         x="71.315567"
         y="34.592152">OF <tspan
   style="font-size:7.05556px"
   id="tspan7">M</tspan>ISCO <tspan
   style="font-size:7.05556px"
   id="tspan8">J</tspan>ONES</tspan></text>
    <text
       xml:space="preserve"
       style="font-style:normal;font-variant:normal;font-weight:normal;font-stretch:normal;font-size:7.05556px;font-family:'Libertinus Serif Display';-inkscape-font-specification:'Libertinus Serif Display, Normal';font-variant-ligatures:none;font-variant-caps:normal;font-variant-numeric:normal;font-variant-east-asian:normal;fill:#ffffff;fill-opacity:1;stroke:#000000;stroke-width:0.253;stroke-linejoin:bevel;stroke-dasharray:none;stroke-opacity:1;paint-order:markers stroke fill"
       x="56.349403"
       y="28.722572"
       id="text9"><tspan
         sodipodi:role="line"
         id="tspan9"
         style="fill:#000000;fill-opacity:1;stroke:none;stroke-width:0.253;stroke-opacity:1"
         x="56.349403"
         y="28.722572">MJ</tspan></text>
    <path
       fill="#000000"
       d="m 55.994505,21.912848 c -0.643258,0.20742 -1.146573,0.435178 -1.766741,0.890254 -0.0804,0.07699 -0.159218,0.154923 -0.236422,0.235174 0.0088,0.02078 0.0224,0.04644 0.04247,0.0826 0.0373,0.06726 0.101581,0.14769 0.182456,0.227244 -0.126801,0.203235 -0.242149,0.40647 -0.348759,0.610292 -0.134511,-0.111603 -0.255219,-0.235798 -0.35221,-0.375192 -0.279632,0.348944 -0.531399,0.72241 -0.75031,1.117499 0.0145,0.06006 0.05716,0.125553 0.13877,0.213293 0.0975,0.104738 0.249822,0.212928 0.426807,0.30522 -0.07431,0.224565 -0.138034,0.448027 -0.190385,0.671086 -0.273134,-0.124084 -0.522956,-0.285174 -0.719326,-0.489841 -0.218066,0.506766 -0.38448,1.043342 -0.492154,1.602678 0.04901,0.08936 0.136346,0.171186 0.268434,0.258155 0.186201,0.122617 0.453754,0.223059 0.744583,0.281101 -0.0016,0.236311 0.0092,0.470715 0.02981,0.70207 -0.418768,-0.06142 -0.822522,-0.192662 -1.151824,-0.409553 -0.0018,-0.0013 -0.0039,-0.0022 -0.0057,-0.0034 -0.04809,0.572333 -0.03201,1.136589 0.04013,1.685279 0.08481,0.127756 0.226731,0.218691 0.438226,0.291417 0.271886,0.09347 0.641423,0.122763 1.017643,0.08488 0.07342,0.224748 0.156942,0.445311 0.250005,0.660808 -0.512859,0.07702 -1.036623,0.05955 -1.49023,-0.09637 -0.01237,-0.0042 -0.02441,-0.0093 -0.03672,-0.01377 0.146038,0.568661 0.354633,1.114929 0.618369,1.630212 0.130435,0.102938 0.306541,0.154776 0.540393,0.170928 0.341417,0.02364 0.776229,-0.06351 1.190848,-0.23286 0.136273,0.192992 0.280109,0.379597 0.43136,0.55985 -0.534887,0.246518 -1.114561,0.391896 -1.654331,0.357937 0.365353,0.536062 0.794364,1.026601 1.279177,1.459283 0.156391,0.05308 0.341417,0.05381 0.564403,0.01029 0.35243,-0.06879 0.765618,-0.271816 1.139158,-0.550677 2.94e-4,1.87e-4 9.93e-4,-1.86e-4 0.0012,0 0.189212,0.146038 0.384591,0.284515 0.583934,0.413004 -0.439657,0.363817 -0.940732,0.649654 -1.451206,0.779021 0.427836,0.289285 0.886509,0.538558 1.370918,0.741059 0.181244,0.01553 0.377762,-0.03521 0.600013,-0.143396 0.28165,-0.137113 0.579307,-0.376366 0.845466,-0.671086 0.625418,0.249012 1.275064,0.4119 1.929668,0.473767 l 0.06534,-0.683761 c -0.5238,-0.04956 -1.049362,-0.175111 -1.562515,-0.364837 0.252685,-0.407791 0.426221,-0.850715 0.475046,-1.227523 0.04324,-0.334588 0.0031,-0.593147 -0.138843,-0.787021 -0.296628,-0.058 -0.583345,-0.144644 -0.858131,-0.256981 -0.0063,0.237524 -0.06263,0.476773 -0.154923,0.70097 -0.137484,0.334185 -0.349493,0.653392 -0.606841,0.94422 -0.196517,-0.120708 -0.387857,-0.250813 -0.574792,-0.39006 0.24303,-0.263662 0.437711,-0.549571 0.547222,-0.81573 0.139724,-0.339434 0.153197,-0.608603 0.02295,-0.837389 -0.284442,-0.181979 -0.550783,-0.394172 -0.797302,-0.632173 -0.06509,0.15786 -0.15371,0.307276 -0.258155,0.443989 -0.201032,0.263039 -0.461537,0.495973 -0.754899,0.694032 -0.151252,-0.173279 -0.2956,-0.35254 -0.43136,-0.539219 0.26256,-0.172324 0.488116,-0.370787 0.64135,-0.571304 0.184953,-0.242076 0.265057,-0.45559 0.23745,-0.664259 -0.182676,-0.24057 -0.348539,-0.498615 -0.495606,-0.770941 -0.08388,0.09861 -0.178417,0.188697 -0.2811,0.26737 -0.248096,0.189982 -0.543256,0.336093 -0.859269,0.441639 -0.09527,-0.208888 -0.181979,-0.422109 -0.256981,-0.640138 0.272656,-0.08829 0.518734,-0.208632 0.69862,-0.346447 0.209109,-0.160136 0.323135,-0.3137 0.349935,-0.486428 -0.111236,-0.293619 -0.202208,-0.599131 -0.271886,-0.914411 -0.06894,0.03946 -0.140238,0.07431 -0.213367,0.103271 -0.273501,0.108188 -0.578207,0.162778 -0.891356,0.174379 -0.0243,-0.226143 -0.0377,-0.455333 -0.03793,-0.68724 0.255402,-0.0097 0.494284,-0.05276 0.676961,-0.125002 0.168873,-0.06681 0.278823,-0.139504 0.342995,-0.229447 -0.03738,-0.356837 -0.04883,-0.72285 -0.02985,-1.094481 -0.02386,0.0038 -0.04736,0.0066 -0.07115,0.0092 -0.243177,0.02661 -0.497661,0.0055 -0.749135,-0.0493 0.05029,-0.219535 0.112704,-0.440905 0.187009,-0.66312 0.178784,0.03425 0.350154,0.0449 0.487528,0.02988 0.09596,-0.0105 0.166377,-0.02775 0.220269,-0.05162 0.05121,-0.327833 0.125076,-0.647738 0.219168,-0.955674 -0.153528,-0.02702 -0.304119,-0.0768 -0.449716,-0.142257 0.10404,-0.200335 0.217552,-0.401184 0.343032,-0.602253 0.08863,0.03535 0.173132,0.06113 0.24549,0.07232 0.04064,0.0062 0.07427,0.0097 0.102132,0.01028 0.07144,-0.170341 0.147653,-0.336644 0.230622,-0.497918 0.216524,-0.433269 0.455773,-0.890254 0.624095,-1.392725 z m 8.971377,0 c 0.168249,0.502434 0.407498,0.959455 0.624095,1.392762 0.08297,0.161273 0.160284,0.327576 0.231651,0.497881 0.02761,-5.86e-4 0.06094,-0.0042 0.100956,-0.01028 0.07269,-0.01123 0.157713,-0.03672 0.246702,-0.07232 0.12548,0.201069 0.238991,0.401918 0.343032,0.60229 -0.145965,0.06557 -0.297216,0.115274 -0.450818,0.142293 0.09409,0.30801 0.167883,0.627767 0.219058,0.955601 0.05411,0.02416 0.124967,0.04111 0.221481,0.05169 0.137374,0.01505 0.308744,0.0044 0.487528,-0.02985 0.07438,0.222581 0.13554,0.444356 0.185871,0.664295 -0.250997,0.05459 -0.505223,0.07474 -0.747997,0.0482 -0.02409,-0.0026 -0.04802,-0.0053 -0.07221,-0.0092 0.01898,0.371667 0.0087,0.737608 -0.02871,1.094443 0.06425,0.08994 0.174196,0.162632 0.343069,0.229447 0.182346,0.07214 0.420787,0.115275 0.675713,0.12504 -1.78e-4,0.23187 -0.01359,0.461097 -0.03781,0.68724 -0.312782,-0.01175 -0.617047,-0.06637 -0.890254,-0.17438 -0.07321,-0.02901 -0.144387,-0.06388 -0.213404,-0.103306 -0.06957,0.3148 -0.160907,0.620057 -0.271885,0.913198 0.02625,0.173279 0.13932,0.327173 0.348759,0.487602 0.180033,0.137779 0.426037,0.258083 0.69873,0.346411 -0.07504,0.218066 -0.161715,0.43125 -0.256981,0.640175 -0.315645,-0.105546 -0.610291,-0.251914 -0.858131,-0.44164 -0.102939,-0.07886 -0.198242,-0.168578 -0.282238,-0.26737 -0.147214,0.272473 -0.312783,0.530261 -0.495605,0.770942 -0.02791,0.208595 0.0525,0.422256 0.237523,0.664295 0.153013,0.200335 0.378606,0.399054 0.64124,0.571342 -0.135723,0.186677 -0.280108,0.365867 -0.431361,0.539181 -0.293325,-0.198094 -0.55383,-0.430993 -0.754862,-0.694067 -0.104187,-0.136384 -0.192148,-0.285543 -0.25698,-0.442888 -0.246335,0.237817 -0.513081,0.449202 -0.797374,0.630998 -0.130216,0.228822 -0.116743,0.497991 0.02298,0.837463 0.109584,0.266158 0.304265,0.55203 0.547295,0.815729 -0.187046,0.139321 -0.37934,0.269243 -0.57593,0.390024 -0.257091,-0.29083 -0.468219,-0.610036 -0.605741,-0.944221 -0.09226,-0.22416 -0.148571,-0.46341 -0.154922,-0.700896 -0.275226,0.112484 -0.562163,0.198903 -0.859233,0.256981 -0.142183,0.193836 -0.18209,0.452432 -0.13877,0.786984 0.04871,0.376807 0.223206,0.819768 0.476039,1.227553 -0.513007,0.189726 -1.038679,0.315248 -1.562516,0.364801 l 0.06424,0.683761 c 0.654933,-0.06193 1.304948,-0.224529 1.930805,-0.473803 0.266158,0.29472 0.563815,0.533973 0.845466,0.671086 0.222325,0.108188 0.418806,0.15896 0.60005,0.143396 0.484591,-0.202537 0.942899,-0.451621 1.370881,-0.741095 -0.510143,-0.129223 -1.011842,-0.414581 -1.451205,-0.77792 0.199783,-0.128632 0.394281,-0.267731 0.583932,-0.4141 0.373724,0.279154 0.787683,0.481871 1.140334,0.550672 0.222325,0.04342 0.407131,0.04351 0.563301,-0.0092 0.485033,-0.43275 0.914851,-0.924097 1.280314,-1.460379 -0.539843,0.03396 -1.120655,-0.111419 -1.655505,-0.357938 0.15125,-0.180363 0.296114,-0.366748 0.432461,-0.55985 0.414657,0.16924 0.849431,0.256467 1.190921,0.232824 0.233779,-0.01615 0.409921,-0.06799 0.540284,-0.170928 0.263699,-0.515283 0.472367,-1.061588 0.618369,-1.630212 -0.0123,0.0045 -0.02434,0.0095 -0.03672,0.01377 -0.453572,0.155914 -0.977371,0.173389 -1.490267,0.09637 0.0931,-0.215497 0.176692,-0.436059 0.250115,-0.660807 0.37578,0.0377 0.744877,0.0085 1.016468,-0.08492 0.211643,-0.07269 0.354266,-0.16355 0.439364,-0.291379 0.07214,-0.54869 0.08708,-1.11302 0.03906,-1.685279 -0.0016,9.93e-4 -0.003,0.0023 -0.0046,0.0034 -0.329302,0.216892 -0.733129,0.348135 -1.151861,0.409554 0.02066,-0.231356 0.03143,-0.465759 0.02981,-0.702108 0.290755,-0.05808 0.558382,-0.158483 0.744509,-0.2811 0.131905,-0.08686 0.218288,-0.16902 0.267371,-0.258155 -0.107712,-0.559263 -0.274236,-1.095913 -0.492228,-1.602642 -0.196297,0.204484 -0.445422,0.365648 -0.718151,0.489879 -0.05239,-0.223133 -0.116081,-0.446595 -0.19046,-0.67116 0.176399,-0.09226 0.328275,-0.200592 0.425634,-0.305183 0.0812,-0.08723 0.124892,-0.152353 0.139981,-0.212192 -0.219168,-0.39553 -0.470422,-0.76929 -0.750384,-1.1186 -0.09699,0.139356 -0.217699,0.263589 -0.352136,0.375191 -0.106648,-0.203858 -0.221995,-0.40713 -0.34876,-0.610365 0.08106,-0.07952 0.145121,-0.160062 0.182383,-0.227245 0.01975,-0.03561 0.03377,-0.06079 0.04244,-0.08143 -0.07731,-0.08051 -0.156941,-0.159107 -0.23745,-0.236312 -0.620167,-0.455076 -1.123482,-0.682835 -1.766741,-0.890254 z"
       id="path1"
       sodipodi:nodetypes="cccccccccccccccccccccccccccccccccccccccccccccccccccccccccccccccccccccccccccccccccccccccccsccccccccccccccccccccccccccccccccccccccccccccccccccccccccccccccccccscccc"
       style="fill:#ffffff;fill-opacity:1;stroke:#000000;stroke-width:0.15;stroke-dasharray:none;stroke-opacity:1" />
    <path
       d="m 60.879524,41.525537 v 2.682601 m 0,0 h 2.6826 m -2.6826,0 4.0239,-4.023904 m -1.676625,12.0717 c -5.741038,0 -10.395073,-4.654043 -10.395073,-10.395075 0,-0.259015 0.0095,-0.515823 0.0281,-0.770086 0.02137,-0.291806 0.03205,-0.437703 0.108517,-0.570523 0.06334,-0.11 0.175576,-0.214315 0.289908,-0.269451 0.138041,-0.06656 0.299044,-0.06656 0.621043,-0.06656 h 1.889428 c 0.270782,0 0.406173,0 0.522235,0.04459 0.102522,0.03938 0.193812,0.103303 0.265846,0.186205 0.08154,0.09384 0.127813,0.221087 0.220356,0.475562 l 0.782051,2.150667 c 0.107639,0.296077 0.161492,0.444117 0.152372,0.584574 -0.008,0.123846 -0.05037,0.243032 -0.122126,0.344285 -0.08138,0.114828 -0.216453,0.195877 -0.486603,0.357965 l -0.917872,0.550725 c 0.806054,1.776482 2.246744,3.219054 4.023899,4.023898 l 0.550738,-0.91785 c 0.162096,-0.270205 0.24311,-0.405272 0.357926,-0.486625 0.101268,-0.07176 0.220443,-0.114079 0.344312,-0.122126 0.140434,-0.0091 0.288513,0.04474 0.584605,0.152371 l 2.15064,0.782045 c 0.254445,0.09255 0.381734,0.138827 0.475558,0.220378 0.08289,0.07202 0.146872,0.163303 0.186172,0.265842 0.0446,0.116027 0.0446,0.251429 0.0446,0.522236 v 1.889421 c 0,0.32198 0,0.483007 -0.0666,0.621024 -0.05512,0.114346 -0.159414,0.226613 -0.269399,0.289924 -0.132857,0.07645 -0.278723,0.08712 -0.570523,0.108511 -0.254311,0.01863 -0.511102,0.02809 -0.770107,0.02809 z"
       stroke="#000000"
       stroke-width="2"
       stroke-linecap="round"
       stroke-linejoin="round"
       id="path1-3"
       style="fill:#ffffff;fill-opacity:1;stroke-width:0.778706;stroke-linecap:round;stroke-linejoin:miter;stroke-dasharray:none;paint-order:normal" />
    <text
       xml:space="preserve"
       style="font-style:normal;font-variant:normal;font-weight:normal;font-stretch:normal;font-size:9.17222px;font-family:'Libertinus Serif Display';-inkscape-font-specification:'Libertinus Serif Display, Normal';font-variant-ligatures:none;font-variant-caps:normal;font-variant-numeric:normal;font-variant-east-asian:normal;fill:#ffffff;fill-opacity:1;stroke:none;stroke-width:1;stroke-linecap:round;stroke-linejoin:miter;stroke-dasharray:none;stroke-opacity:1;paint-order:normal"
       x="69.175308"
       y="45.527084"
       id="text13"><tspan
         sodipodi:role="line"
         style="font-style:normal;font-variant:normal;font-weight:900;font-stretch:semi-condensed;font-size:9.17222px;font-family:'Inconsolata SemiCondensed';-inkscape-font-specification:'Inconsolata SemiCondensed, Heavy Semi-Condensed';font-variant-ligatures:none;font-variant-caps:normal;font-variant-numeric:normal;font-variant-east-asian:normal;fill:#000000;fill-opacity:1;stroke-width:1"
         x="69.175308"
         y="45.527084"
         dx="0 0 0 0 0 0 0 0 0 0 0 0 0 0 0"
         id="tspan17"><tspan
           dx="0 0 0 0"
           id="tspan18"
           style="font-style:normal;font-variant:normal;font-weight:900;font-stretch:semi-condensed;font-size:9.17222px;font-family:'Inconsolata SemiCondensed';-inkscape-font-specification:'Inconsolata SemiCondensed, Heavy Semi-Condensed';font-variant-ligatures:none;font-variant-caps:normal;font-variant-numeric:normal;font-variant-east-asian:normal;fill:#000000;fill-opacity:1;stroke-width:1">DEPTARTMENT</tspan></tspan></text>
    <text
       xml:space="preserve"
       style="font-style:normal;font-variant:normal;font-weight:900;font-stretch:semi-condensed;font-size:9.17222px;font-family:'Inconsolata SemiCondensed';-inkscape-font-specification:'Inconsolata SemiCondensed, Heavy Semi-Condensed';font-variant-ligatures:none;font-variant-caps:normal;font-variant-numeric:normal;font-variant-east-asian:normal;fill:#000000;fill-opacity:1;stroke:none;stroke-width:1;stroke-linecap:round;stroke-linejoin:miter;stroke-dasharray:none;stroke-opacity:1;paint-order:normal"
       x="69.130096"
       y="52.513512"
       id="text19"><tspan
         sodipodi:role="line"
         id="tspan19"
         style="font-size:9.17222px;stroke-width:1"
         x="69.130096"
         y="52.513512">OF BASED</tspan></text>
  </g>
</svg>
