<?xml version="1.0" encoding="UTF-8" standalone="no"?>
<!-- Created with Inkscape (http://www.inkscape.org/) -->

<svg
   width="63.037605mm"
   height="14.106246mm"
   viewBox="0 0 63.037605 14.106246"
   version="1.1"
   id="svg1"
   inkscape:version="1.3.2 (091e20e, 2023-11-25, custom)"
   sodipodi:docname="uni-based.svg"
   xmlns:inkscape="http://www.inkscape.org/namespaces/inkscape"
   xmlns:sodipodi="http://sodipodi.sourceforge.net/DTD/sodipodi-0.dtd"
   xmlns="http://www.w3.org/2000/svg"
   xmlns:svg="http://www.w3.org/2000/svg">
  <sodipodi:namedview
     id="namedview1"
     pagecolor="#ffffff"
     bordercolor="#000000"
     borderopacity="0.25"
     inkscape:showpageshadow="2"
     inkscape:pageopacity="0.0"
     inkscape:pagecheckerboard="0"
     inkscape:deskcolor="#d1d1d1"
     inkscape:document-units="mm"
     inkscape:zoom="0.74386223"
     inkscape:cx="176.78005"
     inkscape:cy="225.1761"
     inkscape:window-width="1920"
     inkscape:window-height="1027"
     inkscape:window-x="-8"
     inkscape:window-y="-8"
     inkscape:window-maximized="1"
     inkscape:current-layer="layer1" />
  <defs
     id="defs1" />
  <g
     inkscape:label="Layer 1"
     inkscape:groupmode="layer"
     id="layer1"
     transform="translate(-58.208332,-88.900002)">
    <rect
       style="fill:#ffffff;fill-opacity:1;stroke:none;stroke-width:1;stroke-linecap:round;stroke-linejoin:miter;stroke-dasharray:none;stroke-opacity:1;paint-order:normal"
       id="rect13-1"
       width="63.037605"
       height="14.106246"
       x="58.208332"
       y="88.900002" />
    <path
       d="m 67.40132,91.258785 v 2.682601 m 0,0 h 2.6826 m -2.6826,0 4.0239,-4.023904 m -1.676625,12.071698 c -5.741038,0 -10.395073,-4.654041 -10.395073,-10.395073 0,-0.259015 0.0095,-0.515823 0.0281,-0.770086 0.02137,-0.291806 0.03205,-0.437703 0.108517,-0.570523 0.06334,-0.11 0.175576,-0.214315 0.289908,-0.269451 0.138041,-0.06656 0.299044,-0.06656 0.621043,-0.06656 h 1.889428 c 0.270782,0 0.406173,0 0.522235,0.04459 0.102522,0.03938 0.193812,0.103303 0.265846,0.186205 0.08154,0.09384 0.127813,0.221087 0.220356,0.475562 l 0.782051,2.150667 c 0.107639,0.296077 0.161492,0.444117 0.152372,0.584574 -0.008,0.123846 -0.05037,0.243032 -0.122126,0.344285 -0.08138,0.114828 -0.216453,0.195877 -0.486603,0.357965 l -0.917872,0.550725 c 0.806054,1.776482 2.246744,3.219054 4.023899,4.023898 l 0.550738,-0.91785 c 0.162096,-0.270205 0.24311,-0.405272 0.357926,-0.486625 0.101268,-0.07176 0.220443,-0.114079 0.344312,-0.122126 0.140434,-0.0091 0.288513,0.04474 0.584605,0.152371 l 2.15064,0.782045 c 0.254445,0.09255 0.381734,0.138827 0.475558,0.220378 0.08289,0.07202 0.146872,0.163303 0.186172,0.265842 0.0446,0.116027 0.0446,0.251429 0.0446,0.522236 v 1.889421 c 0,0.32198 0,0.48301 -0.0666,0.62102 -0.05512,0.11435 -0.159414,0.22662 -0.269399,0.28993 -0.132857,0.0765 -0.278723,0.0871 -0.570523,0.10851 -0.254311,0.0186 -0.511102,0.0281 -0.770107,0.0281 z"
       stroke="#000000"
       stroke-width="2"
       stroke-linecap="round"
       stroke-linejoin="round"
       id="path1-3"
       style="fill:#ffffff;fill-opacity:1;stroke-width:0.778706;stroke-linecap:round;stroke-linejoin:miter;stroke-dasharray:none;paint-order:normal" />
    <text
       xml:space="preserve"
       style="font-style:normal;font-variant:normal;font-weight:normal;font-stretch:normal;font-size:9.17222px;font-family:'Libertinus Serif Display';-inkscape-font-specification:'Libertinus Serif Display, Normal';font-variant-ligatures:none;font-variant-caps:normal;font-variant-numeric:normal;font-variant-east-asian:normal;fill:#ffffff;fill-opacity:1;stroke:none;stroke-width:1;stroke-linecap:round;stroke-linejoin:miter;stroke-dasharray:none;stroke-opacity:1;paint-order:normal"
       x="75.697105"
       y="95.26033"
       id="text13"><tspan
         sodipodi:role="line"
         style="font-style:normal;font-variant:normal;font-weight:900;font-stretch:semi-condensed;font-size:9.17222px;font-family:'Inconsolata SemiCondensed';-inkscape-font-specification:'Inconsolata SemiCondensed, Heavy Semi-Condensed';font-variant-ligatures:none;font-variant-caps:normal;font-variant-numeric:normal;font-variant-east-asian:normal;fill:#000000;fill-opacity:1;stroke-width:1"
         x="75.697105"
         y="95.26033"
         dx="0 0 0 0 0 0 0 0 0 0 0 0 0 0 0"
         id="tspan17"><tspan
           dx="0 0 0 0"
           id="tspan18"
           style="font-style:normal;font-variant:normal;font-weight:900;font-stretch:semi-condensed;font-size:9.17222px;font-family:'Inconsolata SemiCondensed';-inkscape-font-specification:'Inconsolata SemiCondensed, Heavy Semi-Condensed';font-variant-ligatures:none;font-variant-caps:normal;font-variant-numeric:normal;font-variant-east-asian:normal;fill:#000000;fill-opacity:1;stroke-width:1">DEPTARTMENT</tspan></tspan></text>
    <text
       xml:space="preserve"
       style="font-style:normal;font-variant:normal;font-weight:900;font-stretch:semi-condensed;font-size:9.17222px;font-family:'Inconsolata SemiCondensed';-inkscape-font-specification:'Inconsolata SemiCondensed, Heavy Semi-Condensed';font-variant-ligatures:none;font-variant-caps:normal;font-variant-numeric:normal;font-variant-east-asian:normal;fill:#000000;fill-opacity:1;stroke:none;stroke-width:1;stroke-linecap:round;stroke-linejoin:miter;stroke-dasharray:none;stroke-opacity:1;paint-order:normal"
       x="75.651894"
       y="102.24676"
       id="text19"><tspan
         sodipodi:role="line"
         id="tspan19"
         style="font-size:9.17222px;stroke-width:1"
         x="75.651894"
         y="102.24676">OF BASED</tspan></text>
  </g>
</svg>
